<mxfile host="app.diagrams.net" agent="Mozilla/5.0 (Windows NT 10.0; Win64; x64) AppleWebKit/537.36 (KHTML, like Gecko) Chrome/129.0.0.0 Safari/537.36 Edg/129.0.0.0" version="24.7.14">
  <diagram name="第 1 页" id="q-T5ZL6NmQbslMJQPSPM">
    <mxGraphModel dx="1011" dy="523" grid="1" gridSize="10" guides="1" tooltips="1" connect="1" arrows="1" fold="1" page="1" pageScale="1" pageWidth="827" pageHeight="1169" math="0" shadow="0">
      <root>
        <mxCell id="0" />
        <mxCell id="1" parent="0" />
        <mxCell id="p5Tv7sclReszPBZQf7eU-1" value="&lt;b style=&quot;font-size: 14px;&quot;&gt;&lt;font style=&quot;font-size: 14px;&quot;&gt;A&lt;/font&gt;&lt;/b&gt;&lt;div style=&quot;font-size: 14px;&quot;&gt;&lt;b style=&quot;&quot;&gt;&lt;font style=&quot;font-size: 14px;&quot;&gt;&lt;br&gt;&lt;/font&gt;&lt;/b&gt;&lt;div style=&quot;&quot;&gt;&lt;b style=&quot;&quot;&gt;&lt;font style=&quot;font-size: 14px;&quot;&gt;10&lt;/font&gt;&lt;/b&gt;&lt;/div&gt;&lt;/div&gt;" style="text;html=1;align=center;verticalAlign=middle;whiteSpace=wrap;rounded=0;" vertex="1" parent="1">
          <mxGeometry x="56" y="80" width="60" height="30" as="geometry" />
        </mxCell>
        <mxCell id="p5Tv7sclReszPBZQf7eU-2" value="&lt;b style=&quot;font-size: 14px;&quot;&gt;&lt;font style=&quot;font-size: 14px;&quot;&gt;B&lt;/font&gt;&lt;/b&gt;&lt;div style=&quot;font-size: 14px;&quot;&gt;&lt;b style=&quot;&quot;&gt;&lt;font style=&quot;font-size: 14px;&quot;&gt;&lt;br&gt;&lt;/font&gt;&lt;/b&gt;&lt;div style=&quot;&quot;&gt;&lt;b style=&quot;&quot;&gt;&lt;font style=&quot;font-size: 14px;&quot;&gt;15&lt;/font&gt;&lt;/b&gt;&lt;/div&gt;&lt;/div&gt;" style="text;html=1;align=center;verticalAlign=middle;whiteSpace=wrap;rounded=0;" vertex="1" parent="1">
          <mxGeometry x="296" y="80" width="60" height="30" as="geometry" />
        </mxCell>
        <mxCell id="p5Tv7sclReszPBZQf7eU-3" value="&lt;b style=&quot;font-size: 14px;&quot;&gt;&lt;font style=&quot;font-size: 14px;&quot;&gt;C&lt;/font&gt;&lt;/b&gt;&lt;div style=&quot;font-size: 14px;&quot;&gt;&lt;b style=&quot;&quot;&gt;&lt;font style=&quot;font-size: 14px;&quot;&gt;&lt;br&gt;&lt;/font&gt;&lt;/b&gt;&lt;div style=&quot;&quot;&gt;&lt;b style=&quot;&quot;&gt;&lt;font style=&quot;font-size: 14px;&quot;&gt;20&lt;/font&gt;&lt;/b&gt;&lt;/div&gt;&lt;/div&gt;" style="text;html=1;align=center;verticalAlign=middle;whiteSpace=wrap;rounded=0;" vertex="1" parent="1">
          <mxGeometry x="546" y="80" width="60" height="30" as="geometry" />
        </mxCell>
        <mxCell id="p5Tv7sclReszPBZQf7eU-4" value="" style="endArrow=none;html=1;rounded=0;strokeWidth=2;" edge="1" parent="1">
          <mxGeometry width="50" height="50" relative="1" as="geometry">
            <mxPoint x="86" y="180" as="sourcePoint" />
            <mxPoint x="86" y="130" as="targetPoint" />
          </mxGeometry>
        </mxCell>
        <mxCell id="p5Tv7sclReszPBZQf7eU-5" value="lock()" style="text;html=1;align=center;verticalAlign=middle;whiteSpace=wrap;rounded=0;" vertex="1" parent="1">
          <mxGeometry x="6" y="170" width="60" height="30" as="geometry" />
        </mxCell>
        <mxCell id="p5Tv7sclReszPBZQf7eU-6" value="" style="endArrow=classic;html=1;rounded=0;" edge="1" parent="1">
          <mxGeometry width="50" height="50" relative="1" as="geometry">
            <mxPoint x="86" y="180" as="sourcePoint" />
            <mxPoint x="326" y="240" as="targetPoint" />
          </mxGeometry>
        </mxCell>
        <mxCell id="p5Tv7sclReszPBZQf7eU-9" value="thread_yield()" style="text;html=1;align=center;verticalAlign=middle;whiteSpace=wrap;rounded=0;" vertex="1" parent="1">
          <mxGeometry x="146" y="170" width="80" height="30" as="geometry" />
        </mxCell>
        <mxCell id="p5Tv7sclReszPBZQf7eU-13" value="join()抢占CPU&lt;div&gt;&lt;br&gt;&lt;/div&gt;&lt;div&gt;thread_create()/&lt;/div&gt;&lt;div&gt;set_priority&lt;/div&gt;" style="text;html=1;align=center;verticalAlign=middle;whiteSpace=wrap;rounded=0;" vertex="1" parent="1">
          <mxGeometry x="276" y="180" width="90" height="40" as="geometry" />
        </mxCell>
        <mxCell id="p5Tv7sclReszPBZQf7eU-15" value="" style="endArrow=none;html=1;rounded=0;strokeWidth=2;" edge="1" parent="1">
          <mxGeometry width="50" height="50" relative="1" as="geometry">
            <mxPoint x="325.5" y="290" as="sourcePoint" />
            <mxPoint x="325.5" y="240" as="targetPoint" />
          </mxGeometry>
        </mxCell>
        <mxCell id="p5Tv7sclReszPBZQf7eU-16" value="" style="endArrow=classic;html=1;rounded=0;" edge="1" parent="1">
          <mxGeometry width="50" height="50" relative="1" as="geometry">
            <mxPoint x="326" y="290" as="sourcePoint" />
            <mxPoint x="566" y="350" as="targetPoint" />
          </mxGeometry>
        </mxCell>
        <mxCell id="p5Tv7sclReszPBZQf7eU-17" value="thread_yield()" style="text;html=1;align=center;verticalAlign=middle;whiteSpace=wrap;rounded=0;" vertex="1" parent="1">
          <mxGeometry x="396" y="280" width="80" height="30" as="geometry" />
        </mxCell>
        <mxCell id="p5Tv7sclReszPBZQf7eU-18" value="join()抢占CPU&lt;div&gt;&lt;br&gt;&lt;/div&gt;&lt;div&gt;thread_create()/&lt;/div&gt;&lt;div&gt;set_priority&lt;/div&gt;" style="text;html=1;align=center;verticalAlign=middle;whiteSpace=wrap;rounded=0;" vertex="1" parent="1">
          <mxGeometry x="526" y="280" width="90" height="40" as="geometry" />
        </mxCell>
        <mxCell id="p5Tv7sclReszPBZQf7eU-20" value="" style="endArrow=none;html=1;rounded=0;strokeWidth=2;" edge="1" parent="1">
          <mxGeometry width="50" height="50" relative="1" as="geometry">
            <mxPoint x="566" y="400" as="sourcePoint" />
            <mxPoint x="566" y="350" as="targetPoint" />
          </mxGeometry>
        </mxCell>
        <mxCell id="p5Tv7sclReszPBZQf7eU-21" value="请求lock&lt;div&gt;释放CPU&lt;/div&gt;" style="text;html=1;align=center;verticalAlign=middle;whiteSpace=wrap;rounded=0;" vertex="1" parent="1">
          <mxGeometry x="566" y="380" width="60" height="30" as="geometry" />
        </mxCell>
        <mxCell id="p5Tv7sclReszPBZQf7eU-23" value="" style="endArrow=none;dashed=1;html=1;rounded=0;" edge="1" parent="1">
          <mxGeometry width="50" height="50" relative="1" as="geometry">
            <mxPoint x="326" y="440" as="sourcePoint" />
            <mxPoint x="566" y="400" as="targetPoint" />
          </mxGeometry>
        </mxCell>
        <mxCell id="p5Tv7sclReszPBZQf7eU-24" value="" style="endArrow=classic;html=1;rounded=0;" edge="1" parent="1">
          <mxGeometry width="50" height="50" relative="1" as="geometry">
            <mxPoint x="623" y="400" as="sourcePoint" />
            <mxPoint x="653" y="400" as="targetPoint" />
          </mxGeometry>
        </mxCell>
        <mxCell id="p5Tv7sclReszPBZQf7eU-26" value="sema_down()" style="text;html=1;align=center;verticalAlign=middle;whiteSpace=wrap;rounded=0;" vertex="1" parent="1">
          <mxGeometry x="680" y="340" width="80" height="30" as="geometry" />
        </mxCell>
        <mxCell id="p5Tv7sclReszPBZQf7eU-27" value="list_push_back:sema-&amp;gt;waiter" style="text;html=1;align=center;verticalAlign=middle;whiteSpace=wrap;rounded=0;" vertex="1" parent="1">
          <mxGeometry x="655" y="360" width="163" height="30" as="geometry" />
        </mxCell>
        <mxCell id="p5Tv7sclReszPBZQf7eU-29" value="thread_block()" style="text;html=1;align=center;verticalAlign=middle;whiteSpace=wrap;rounded=0;" vertex="1" parent="1">
          <mxGeometry x="680" y="380" width="80" height="30" as="geometry" />
        </mxCell>
        <mxCell id="p5Tv7sclReszPBZQf7eU-30" value="schedule()" style="text;html=1;align=center;verticalAlign=middle;whiteSpace=wrap;rounded=0;" vertex="1" parent="1">
          <mxGeometry x="680" y="400" width="80" height="30" as="geometry" />
        </mxCell>
        <mxCell id="p5Tv7sclReszPBZQf7eU-33" value="寻找ready_list最高优先级线程" style="text;html=1;align=center;verticalAlign=middle;whiteSpace=wrap;rounded=0;" vertex="1" parent="1">
          <mxGeometry x="660" y="430" width="130" height="30" as="geometry" />
        </mxCell>
        <mxCell id="p5Tv7sclReszPBZQf7eU-34" value="schedule()" style="text;html=1;align=center;verticalAlign=middle;whiteSpace=wrap;rounded=0;" vertex="1" parent="1">
          <mxGeometry x="414" y="390" width="80" height="30" as="geometry" />
        </mxCell>
        <mxCell id="p5Tv7sclReszPBZQf7eU-36" value="" style="endArrow=none;dashed=1;html=1;rounded=0;" edge="1" parent="1">
          <mxGeometry width="50" height="50" relative="1" as="geometry">
            <mxPoint x="326" y="500" as="sourcePoint" />
            <mxPoint x="326" y="440" as="targetPoint" />
          </mxGeometry>
        </mxCell>
        <mxCell id="p5Tv7sclReszPBZQf7eU-37" value="&lt;span style=&quot;box-sizing: border-box; border: 0px solid rgb(229, 231, 235); --tw-border-spacing-x: 0; --tw-border-spacing-y: 0; --tw-translate-x: 0; --tw-translate-y: 0; --tw-rotate: 0; --tw-skew-x: 0; --tw-skew-y: 0; --tw-scale-x: 1; --tw-scale-y: 1; --tw-pan-x: ; --tw-pan-y: ; --tw-pinch-zoom: ; --tw-scroll-snap-strictness: proximity; --tw-gradient-from-position: ; --tw-gradient-via-position: ; --tw-gradient-to-position: ; --tw-ordinal: ; --tw-slashed-zero: ; --tw-numeric-figure: ; --tw-numeric-spacing: ; --tw-numeric-fraction: ; --tw-ring-inset: ; --tw-ring-offset-width: 0px; --tw-ring-offset-color: #fff; --tw-ring-color: rgba(59,130,246,.5); --tw-ring-offset-shadow: 0 0 #0000; --tw-ring-shadow: 0 0 #0000; --tw-shadow: 0 0 #0000; --tw-shadow-colored: 0 0 #0000; --tw-blur: ; --tw-brightness: ; --tw-contrast: ; --tw-grayscale: ; --tw-hue-rotate: ; --tw-invert: ; --tw-saturate: ; --tw-sepia: ; --tw-drop-shadow: ; --tw-backdrop-blur: ; --tw-backdrop-brightness: ; --tw-backdrop-contrast: ; --tw-backdrop-grayscale: ; --tw-backdrop-hue-rotate: ; --tw-backdrop-invert: ; --tw-backdrop-opacity: ; --tw-backdrop-saturate: ; --tw-backdrop-sepia: ; --tw-contain-size: ; --tw-contain-layout: ; --tw-contain-paint: ; --tw-contain-style: ; font-weight: 700; color: color(srgb 0.120353 0.120353 0.120353); font-family: __Inter_207ec3, __Inter_Fallback_207ec3, system-ui, arial; font-size: medium; text-align: start; white-space-collapse: preserve; background-color: color(srgb 1 1 1);&quot; class=&quot;font-bold&quot;&gt;priority inversion&lt;/span&gt;" style="text;html=1;align=center;verticalAlign=middle;whiteSpace=wrap;rounded=0;" vertex="1" parent="1">
          <mxGeometry x="350" y="500" width="230" height="30" as="geometry" />
        </mxCell>
        <mxCell id="p5Tv7sclReszPBZQf7eU-38" value="" style="rounded=0;whiteSpace=wrap;html=1;fillColor=none;strokeColor=#6c8ebf;" vertex="1" parent="1">
          <mxGeometry x="653" y="325" width="165" height="140" as="geometry" />
        </mxCell>
        <mxCell id="p5Tv7sclReszPBZQf7eU-39" value="lock_acquire()" style="text;html=1;align=center;verticalAlign=middle;whiteSpace=wrap;rounded=0;" vertex="1" parent="1">
          <mxGeometry x="680" y="320" width="80" height="30" as="geometry" />
        </mxCell>
      </root>
    </mxGraphModel>
  </diagram>
</mxfile>
